<mxfile host="Electron" agent="Mozilla/5.0 (Windows NT 10.0; Win64; x64) AppleWebKit/537.36 (KHTML, like Gecko) draw.io/24.7.8 Chrome/128.0.6613.36 Electron/32.0.1 Safari/537.36" version="24.7.8">
  <diagram id="C5RBs43oDa-KdzZeNtuy" name="Page-1">
    <mxGraphModel dx="1290" dy="621" grid="1" gridSize="10" guides="1" tooltips="1" connect="1" arrows="1" fold="1" page="1" pageScale="1" pageWidth="827" pageHeight="1169" math="0" shadow="0">
      <root>
        <mxCell id="WIyWlLk6GJQsqaUBKTNV-0" />
        <mxCell id="WIyWlLk6GJQsqaUBKTNV-1" parent="WIyWlLk6GJQsqaUBKTNV-0" />
        <mxCell id="v99uoNAywO0dUj9ykpUY-13" style="edgeStyle=orthogonalEdgeStyle;rounded=0;orthogonalLoop=1;jettySize=auto;html=1;" edge="1" parent="WIyWlLk6GJQsqaUBKTNV-1" source="v99uoNAywO0dUj9ykpUY-1" target="v99uoNAywO0dUj9ykpUY-10">
          <mxGeometry relative="1" as="geometry" />
        </mxCell>
        <mxCell id="v99uoNAywO0dUj9ykpUY-1" value="What month number is it?" style="strokeWidth=2;html=1;shape=mxgraph.flowchart.start_2;whiteSpace=wrap;" vertex="1" parent="WIyWlLk6GJQsqaUBKTNV-1">
          <mxGeometry x="300" y="70" width="100" height="100" as="geometry" />
        </mxCell>
        <mxCell id="v99uoNAywO0dUj9ykpUY-15" style="edgeStyle=orthogonalEdgeStyle;rounded=0;orthogonalLoop=1;jettySize=auto;html=1;" edge="1" parent="WIyWlLk6GJQsqaUBKTNV-1" source="v99uoNAywO0dUj9ykpUY-10" target="v99uoNAywO0dUj9ykpUY-14">
          <mxGeometry relative="1" as="geometry" />
        </mxCell>
        <mxCell id="v99uoNAywO0dUj9ykpUY-10" value="Input number" style="html=1;strokeWidth=2;shape=manualInput;whiteSpace=wrap;rounded=1;size=26;arcSize=11;" vertex="1" parent="WIyWlLk6GJQsqaUBKTNV-1">
          <mxGeometry x="300" y="270" width="100" height="60" as="geometry" />
        </mxCell>
        <mxCell id="v99uoNAywO0dUj9ykpUY-14" value="what season" style="shape=parallelogram;html=1;strokeWidth=2;perimeter=parallelogramPerimeter;whiteSpace=wrap;rounded=1;arcSize=12;size=0.23;" vertex="1" parent="WIyWlLk6GJQsqaUBKTNV-1">
          <mxGeometry x="260" y="420" width="180" height="60" as="geometry" />
        </mxCell>
        <mxCell id="v99uoNAywO0dUj9ykpUY-20" style="edgeStyle=orthogonalEdgeStyle;rounded=0;orthogonalLoop=1;jettySize=auto;html=1;entryX=0.5;entryY=0;entryDx=0;entryDy=0;exitX=0;exitY=0.25;exitDx=0;exitDy=0;" edge="1" parent="WIyWlLk6GJQsqaUBKTNV-1" source="v99uoNAywO0dUj9ykpUY-17" target="v99uoNAywO0dUj9ykpUY-19">
          <mxGeometry relative="1" as="geometry">
            <mxPoint x="70" y="660" as="targetPoint" />
            <Array as="points">
              <mxPoint x="116" y="610" />
              <mxPoint x="90" y="610" />
            </Array>
          </mxGeometry>
        </mxCell>
        <mxCell id="v99uoNAywO0dUj9ykpUY-23" style="edgeStyle=orthogonalEdgeStyle;rounded=0;orthogonalLoop=1;jettySize=auto;html=1;exitX=1;exitY=0.5;exitDx=0;exitDy=0;" edge="1" parent="WIyWlLk6GJQsqaUBKTNV-1" source="v99uoNAywO0dUj9ykpUY-17" target="v99uoNAywO0dUj9ykpUY-22">
          <mxGeometry relative="1" as="geometry">
            <Array as="points">
              <mxPoint x="230" y="615" />
            </Array>
          </mxGeometry>
        </mxCell>
        <mxCell id="v99uoNAywO0dUj9ykpUY-17" value="months 3-8" style="shape=parallelogram;html=1;strokeWidth=2;perimeter=parallelogramPerimeter;whiteSpace=wrap;rounded=1;arcSize=12;size=0.23;" vertex="1" parent="WIyWlLk6GJQsqaUBKTNV-1">
          <mxGeometry x="100" y="585" width="100" height="60" as="geometry" />
        </mxCell>
        <mxCell id="v99uoNAywO0dUj9ykpUY-18" style="edgeStyle=orthogonalEdgeStyle;rounded=0;orthogonalLoop=1;jettySize=auto;html=1;entryX=0.572;entryY=-0.017;entryDx=0;entryDy=0;entryPerimeter=0;" edge="1" parent="WIyWlLk6GJQsqaUBKTNV-1" source="v99uoNAywO0dUj9ykpUY-14" target="v99uoNAywO0dUj9ykpUY-17">
          <mxGeometry relative="1" as="geometry" />
        </mxCell>
        <mxCell id="v99uoNAywO0dUj9ykpUY-31" style="edgeStyle=orthogonalEdgeStyle;rounded=0;orthogonalLoop=1;jettySize=auto;html=1;" edge="1" parent="WIyWlLk6GJQsqaUBKTNV-1" source="v99uoNAywO0dUj9ykpUY-19" target="v99uoNAywO0dUj9ykpUY-30">
          <mxGeometry relative="1" as="geometry">
            <Array as="points">
              <mxPoint x="90" y="1015" />
            </Array>
          </mxGeometry>
        </mxCell>
        <mxCell id="v99uoNAywO0dUj9ykpUY-19" value="3-5 = spring" style="shape=parallelogram;html=1;strokeWidth=2;perimeter=parallelogramPerimeter;whiteSpace=wrap;rounded=1;arcSize=12;size=0.23;" vertex="1" parent="WIyWlLk6GJQsqaUBKTNV-1">
          <mxGeometry x="40" y="760" width="100" height="60" as="geometry" />
        </mxCell>
        <mxCell id="v99uoNAywO0dUj9ykpUY-22" value="6-9 = summer" style="shape=parallelogram;html=1;strokeWidth=2;perimeter=parallelogramPerimeter;whiteSpace=wrap;rounded=1;arcSize=12;size=0.23;" vertex="1" parent="WIyWlLk6GJQsqaUBKTNV-1">
          <mxGeometry x="180" y="760" width="100" height="60" as="geometry" />
        </mxCell>
        <mxCell id="v99uoNAywO0dUj9ykpUY-28" style="edgeStyle=orthogonalEdgeStyle;rounded=0;orthogonalLoop=1;jettySize=auto;html=1;entryX=0.5;entryY=0;entryDx=0;entryDy=0;exitX=0;exitY=0.25;exitDx=0;exitDy=0;" edge="1" parent="WIyWlLk6GJQsqaUBKTNV-1" source="v99uoNAywO0dUj9ykpUY-24" target="v99uoNAywO0dUj9ykpUY-26">
          <mxGeometry relative="1" as="geometry">
            <Array as="points">
              <mxPoint x="430" y="605" />
            </Array>
          </mxGeometry>
        </mxCell>
        <mxCell id="v99uoNAywO0dUj9ykpUY-24" value="months 9-12 and 1,2" style="shape=parallelogram;html=1;strokeWidth=2;perimeter=parallelogramPerimeter;whiteSpace=wrap;rounded=1;arcSize=12;size=0.23;" vertex="1" parent="WIyWlLk6GJQsqaUBKTNV-1">
          <mxGeometry x="440" y="585" width="180" height="60" as="geometry" />
        </mxCell>
        <mxCell id="v99uoNAywO0dUj9ykpUY-25" style="edgeStyle=orthogonalEdgeStyle;rounded=0;orthogonalLoop=1;jettySize=auto;html=1;entryX=0.596;entryY=0.077;entryDx=0;entryDy=0;entryPerimeter=0;exitX=1;exitY=0.5;exitDx=0;exitDy=0;" edge="1" parent="WIyWlLk6GJQsqaUBKTNV-1" source="v99uoNAywO0dUj9ykpUY-14" target="v99uoNAywO0dUj9ykpUY-24">
          <mxGeometry relative="1" as="geometry">
            <Array as="points">
              <mxPoint x="537" y="450" />
            </Array>
          </mxGeometry>
        </mxCell>
        <mxCell id="v99uoNAywO0dUj9ykpUY-26" value="9-11 = fall" style="shape=parallelogram;html=1;strokeWidth=2;perimeter=parallelogramPerimeter;whiteSpace=wrap;rounded=1;arcSize=12;size=0.23;" vertex="1" parent="WIyWlLk6GJQsqaUBKTNV-1">
          <mxGeometry x="380" y="750" width="100" height="60" as="geometry" />
        </mxCell>
        <mxCell id="v99uoNAywO0dUj9ykpUY-27" value="12,1,2 = winter" style="shape=parallelogram;html=1;strokeWidth=2;perimeter=parallelogramPerimeter;whiteSpace=wrap;rounded=1;arcSize=12;size=0.23;" vertex="1" parent="WIyWlLk6GJQsqaUBKTNV-1">
          <mxGeometry x="550" y="750" width="140" height="60" as="geometry" />
        </mxCell>
        <mxCell id="v99uoNAywO0dUj9ykpUY-29" style="edgeStyle=orthogonalEdgeStyle;rounded=0;orthogonalLoop=1;jettySize=auto;html=1;entryX=0.634;entryY=-0.047;entryDx=0;entryDy=0;entryPerimeter=0;exitX=1;exitY=0.5;exitDx=0;exitDy=0;" edge="1" parent="WIyWlLk6GJQsqaUBKTNV-1" source="v99uoNAywO0dUj9ykpUY-24" target="v99uoNAywO0dUj9ykpUY-27">
          <mxGeometry relative="1" as="geometry">
            <Array as="points">
              <mxPoint x="640" y="615" />
              <mxPoint x="640" y="698" />
              <mxPoint x="639" y="698" />
            </Array>
          </mxGeometry>
        </mxCell>
        <mxCell id="v99uoNAywO0dUj9ykpUY-30" value="The month is (month) and the season is (season)." style="strokeWidth=2;html=1;shape=mxgraph.flowchart.display;whiteSpace=wrap;" vertex="1" parent="WIyWlLk6GJQsqaUBKTNV-1">
          <mxGeometry x="260" y="970" width="210" height="90" as="geometry" />
        </mxCell>
        <mxCell id="v99uoNAywO0dUj9ykpUY-32" style="edgeStyle=orthogonalEdgeStyle;rounded=0;orthogonalLoop=1;jettySize=auto;html=1;entryX=0.2;entryY=0.14;entryDx=0;entryDy=0;entryPerimeter=0;" edge="1" parent="WIyWlLk6GJQsqaUBKTNV-1" source="v99uoNAywO0dUj9ykpUY-22" target="v99uoNAywO0dUj9ykpUY-30">
          <mxGeometry relative="1" as="geometry" />
        </mxCell>
        <mxCell id="v99uoNAywO0dUj9ykpUY-33" style="edgeStyle=orthogonalEdgeStyle;rounded=0;orthogonalLoop=1;jettySize=auto;html=1;entryX=0.5;entryY=0;entryDx=0;entryDy=0;entryPerimeter=0;" edge="1" parent="WIyWlLk6GJQsqaUBKTNV-1" source="v99uoNAywO0dUj9ykpUY-26" target="v99uoNAywO0dUj9ykpUY-30">
          <mxGeometry relative="1" as="geometry" />
        </mxCell>
        <mxCell id="v99uoNAywO0dUj9ykpUY-34" style="edgeStyle=orthogonalEdgeStyle;rounded=0;orthogonalLoop=1;jettySize=auto;html=1;entryX=1;entryY=0.5;entryDx=0;entryDy=0;entryPerimeter=0;" edge="1" parent="WIyWlLk6GJQsqaUBKTNV-1" source="v99uoNAywO0dUj9ykpUY-27" target="v99uoNAywO0dUj9ykpUY-30">
          <mxGeometry relative="1" as="geometry" />
        </mxCell>
        <mxCell id="v99uoNAywO0dUj9ykpUY-35" value="" style="strokeWidth=2;html=1;shape=mxgraph.flowchart.terminator;whiteSpace=wrap;" vertex="1" parent="WIyWlLk6GJQsqaUBKTNV-1">
          <mxGeometry x="315" y="1100" width="100" height="60" as="geometry" />
        </mxCell>
        <mxCell id="v99uoNAywO0dUj9ykpUY-36" style="edgeStyle=orthogonalEdgeStyle;rounded=0;orthogonalLoop=1;jettySize=auto;html=1;entryX=0.5;entryY=0;entryDx=0;entryDy=0;entryPerimeter=0;" edge="1" parent="WIyWlLk6GJQsqaUBKTNV-1" source="v99uoNAywO0dUj9ykpUY-30" target="v99uoNAywO0dUj9ykpUY-35">
          <mxGeometry relative="1" as="geometry" />
        </mxCell>
      </root>
    </mxGraphModel>
  </diagram>
</mxfile>
